<?xml version="1.0" encoding="UTF-8"?>
<svg xmlns="http://www.w3.org/2000/svg" version="1.1" viewBox="0 0 395.9 142.7">
  <defs>
    <style>
      .cls-1 {
        fill: #fefefe;
      }

      .cls-2 {
        fill: #1a3f7b;
      }

      .cls-3 {
        fill: #1f509e;
      }
    </style>
  </defs>
  <!-- Generator: Adobe Illustrator 28.6.0, SVG Export Plug-In . SVG Version: 1.2.0 Build 709)  -->
  <g>
    <g id="Camada_1">
      <path class="cls-3" d="M46.4,25.8c-1.8,3.4-3.6,6.7-5.4,9.9-.3.5-.9.9-1.5,1.1-5.8,1.7-10.5,5.3-14.9,9.2-9.1,8.4-14.6,18.9-16.1,31.2-1.9,15.3,2.7,28.7,12.9,40.2,1.8,2.1,3.8,3.9,6,5.7,1.2,1,2.2,1.2,3.7.7,8.4-3,17.1-4.4,26-4.6,10.1-.2,19.9,1.6,29.4,5.1,1.8.6,2.9.3,4.3-.7,10.8-8.2,17.4-19,19.3-32.4,2.6-17.8-2.9-33-15.9-45.4-3.5-3.3-7.4-6.1-12-7.9-.7-.3-1.3-.8-2-1.1-3.1-1.4-3.1-1.4-1.6-4.6.3-.6.6-1.2.9-1.8,1.2-2.5,1.3-2.5,3.9-1.4,11,4.7,19.8,12.2,26.1,22.3,6.7,10.8,10,22.5,9.3,35.3-.6,11.1-4.1,21.3-10.5,30.4-8.4,11.9-19.7,19.8-33.8,23.6-14,3.8-27.6,2.2-40.6-3.9-12.8-6-21.9-15.8-28.2-28.3-2-4-3.4-8.3-4.3-12.7-3.7-17.2,0-32.8,10.1-47,8.4-12,19.9-19.5,34.2-22.9.1,0,.3,0,.8,0Z"/>
      <path class="cls-2" d="M58.7,113.8c-9.9,0-19.7-1.2-29.2-4.3-5.8-1.8-8.4-5.4-8.5-11.4q0-3.4-3.4-3.4c-2.6,0-3.1-.4-3.1-3.1,0-3.8,0-7.6,0-11.5,0-2.1.5-2.5,2.5-2.6q3.9,0,4-3.9c0-1.3,0-2.5,0-3.8,0-5.1,2.5-8.7,7.3-10.4,5.4-2,11.1-3,16.8-3.8,1.4-.2,2.8-.4,4.3-.4.9,0,1.4-.4,1.2-1.4,0-.4,0-.9,0-1.4,0-1.4.7-2.1,2.1-2.1,4.6,0,9.1,0,13.7,0,1.3,0,1.6.7,1.7,1.9,0,2.9,0,2.9,2.9,3.2,5.9.6,11.8,1.6,17.5,3.4,1.9.6,3.8,1.2,5.4,2.4,2.5,1.9,4,4.5,4,7.7,0,2.5,0,4.9,0,7.4,0,1,.3,1.3,1.3,1.3,1.1,0,2.2,0,3.3,0,1.2,0,1.9.7,1.9,1.9,0,4.4,0,8.8,0,13.2,0,1.3-.7,2-2,2-.1,0-.2,0-.3,0q-4,.1-4,4.1c0,5.3-2.7,9-8,10.7-8.1,2.5-16.3,3.8-24.8,4.2-2.2.1-4.5,0-6.7,0ZM29.5,84.3h0c0,4.7,0,9.4,0,14,0,1.7.7,2.7,2.3,3.1,2.5.7,5.1,1.4,7.6,1.9,16,3,31.8,2.8,47.5-1.6,2.2-.6,2.6-1.2,2.6-3.5,0-8.9,0-17.8,0-26.7,0-3.2-.3-3.6-3.3-4.4-6.6-1.8-13.3-2.9-20.1-3.3-11.5-.7-22.9,0-34.1,3.3-2,.6-2.7,1.4-2.7,3.6,0,4.6,0,9.1,0,13.7Z"/>
      <path class="cls-2" d="M280.3,82.5c7.3,4.7,8.7,13.4,3.3,19.5-2.7,3-6.3,4.1-10.2,4.2-8.6.2-17.3,0-25.9.1-1.2,0-1.4-.5-1.4-1.6,0-14.1,0-28.2,0-42.3,0-1.2.4-1.6,1.6-1.6,8.1,0,16.1,0,24.2,0,6.2,0,10.8,3,12.3,7.8,1.8,5.4.9,10.1-3.9,13.9ZM264.2,86.9h0c-2.8,0-5.6,0-8.4,0-1.1,0-1.5.2-1.5,1.4,0,3.1,0,6.2,0,9.2,0,1.1.3,1.4,1.4,1.3,3,0,5.9,0,8.9,0,2.7,0,5.5.1,8.2-.1,3.5-.3,5.8-3.1,5.5-6.2-.3-3.3-2.7-5.5-6.2-5.5-2.6,0-5.3,0-7.9,0ZM263.5,79.4c1.3,0,2.5,0,3.8,0,1.3,0,2.5,0,3.8,0,3.5-.1,5.7-2.2,5.7-5.5,0-3.4-2-5.5-5.5-5.6-5.2-.1-10.4,0-15.6,0-1,0-1.3.3-1.2,1.3,0,2.9,0,5.7,0,8.6,0,1.1.4,1.3,1.4,1.3,2.6,0,5.1,0,7.7,0Z"/>
      <path class="cls-2" d="M329.5,82.6c6.3,3.4,6.9,9,6.2,13.7-.8,4.9-4.6,8.4-10.2,9.6-1.5.3-2.9.4-4.4.4-8,0-16,0-24,0-1.3,0-1.8-.4-1.8-1.8,0-13.9,0-27.7,0-41.6,0-1.6.3-2.2,2.1-2.2,7.7,0,15.3,0,23,0,2.1,0,4.2.3,6.2,1,9.3,3.2,9.6,16.3,3.2,20.3,0,0-.1.2-.2.4ZM313.4,86.9c-2.8,0-5.6,0-8.4,0-1.1,0-1.4.3-1.3,1.4,0,1.9,0,3.8,0,5.6,0,1.6-.7,3.7.3,4.6,1,1,3.1.3,4.8.3,4.3,0,8.6.1,12.8,0,3.7-.2,6-2.7,5.9-6.2,0-3.4-2.5-5.6-6.2-5.7-2.6,0-5.2,0-7.9,0ZM312.5,79.4c1.3,0,2.5,0,3.8,0,1.3,0,2.6,0,3.9,0,3.5-.1,5.8-2.4,5.8-5.7,0-3.2-2.3-5.4-5.8-5.4-5.1,0-10.2,0-15.2,0-1.1,0-1.3.4-1.3,1.4,0,2.9,0,5.7,0,8.6,0,1,.4,1.2,1.3,1.2,2.5,0,5,0,7.5,0Z"/>
      <path class="cls-2" d="M143.2,83.6c0-6.8,0-13.7,0-20.5,0-2.2,0-2.2,2.3-2.2,7.3,0,14.5-.2,21.8,0,15.4.4,18.2,14.9,13.7,23.4-1.5,2.9-3.8,4.9-6.9,6.2-1,.4-1,.8-.4,1.6,2.9,4.1,5.7,8.3,8.5,12.4.3.5.9.9.6,1.5-.3.7-1.1.4-1.7.4-2,0-4,0-6,0-1,0-1.6-.3-2.2-1.2-2.7-4.1-5.5-8.2-8.2-12.2-.4-.6-.9-.8-1.5-.8-3.5,0-7.1,0-10.6,0-1,0-1.1.4-1.1,1.2,0,3.8,0,7.5,0,11.3,0,1.2-.3,1.8-1.7,1.7-1.6,0-3.2,0-4.8,0-1.4,0-1.9-.4-1.9-1.8,0-7,0-13.9,0-20.9ZM159.7,84.2s0,0,0,0c2.5,0,4.9,0,7.4,0,4.3-.2,7.3-3.3,7.3-7.7,0-4.4-2.8-7.9-7.2-8-4.9-.2-9.8,0-14.7,0-.8,0-1.1.3-1.1,1.1,0,4.5,0,9,0,13.5,0,1,.3,1.3,1.3,1.3,2.3,0,4.7,0,7,0Z"/>
      <path class="cls-2" d="M189.5,83.6c.1-13.8,10.6-23.6,25-23.5,13.2.1,23.5,10.6,23.3,23.8-.2,13.3-10.8,23.4-24.5,23.2-14.6-.2-24.1-11.3-23.9-23.5ZM229.4,83.6c0-8.9-6.9-15.8-15.5-15.7-9.2,0-16,6.8-16,15.8,0,8.9,7,15.7,16,15.7,8.7,0,15.6-7,15.5-15.8Z"/>
      <path class="cls-2" d="M379,106.3c-5,0-9.9,0-14.9,0-1.4,0-2-.3-2-1.9,0-7.9,0-15.8,0-23.6,0-1.2.5-1.4,1.5-1.4,9.4,0,18.7,0,28.1,0,1.1,0,1.6.4,1.5,1.5,0,1.4,0,2.7,0,4.1.1,1.5-.4,2-1.9,2-5.8,0-11.7,0-17.5,0-3.4,0-3.4,0-3.4,3.4,0,2,0,4,0,6,0,2.2,0,2.3,2.2,2.3,6.5,0,12.9,0,19.4,0,4.5,0,3.9-.6,4,4,0,.7,0,1.4,0,2.1,0,1.2-.4,1.6-1.6,1.6-5.1,0-10.2,0-15.3,0h0Z"/>
      <path class="cls-3" d="M70.2,0c-2.2,8.5-4.3,17-6.5,25.8h10.3c.1.9-.3,1.5-.6,2.1-3.2,6.4-6.5,12.8-9.7,19.2-.7,1.5-1.6,2.2-3.3,2-1.1-.1-2.2,0-3.2,0-1,0-1.2-.2-.9-1.2,1.3-4.2,2.4-8.4,3.7-12.6.4-1.2.2-1.6-1.1-1.5-2.6,0-5.3,0-7.9,0-1.4,0-1.5-.3-.8-1.5,6-10,12-20.1,18.3-30,.5-.8,1-1.6,1.5-2.4,0,0,.2,0,.2,0Z"/>
      <path class="cls-2" d="M344.5,83.6c0-7,0-14,0-21.1,0-1.3.3-1.8,1.7-1.8,1.7.1,3.4,0,5.1,0,1.2,0,1.6.5,1.6,1.6,0,.2,0,.5,0,.7,0,13.8,0,27.5,0,41.3,0,1.5-.5,2-2,1.9-1.6-.1-3.2-.1-4.8,0-1.4,0-1.8-.5-1.7-1.8,0-7,0-13.9,0-20.9h0Z"/>
      <path class="cls-3" d="M378.3,68.5c-4.8,0-9.6,0-14.4,0-1.4,0-2-.5-1.9-1.9,0-1.5,0-3,0-4.4,0-1,.4-1.5,1.5-1.5,10,0,20,0,30,0,1.1,0,1.4.5,1.4,1.5,0,1.5-.1,3.1,0,4.6,0,1.3-.5,1.7-1.7,1.7-4.9,0-9.8,0-14.7,0Z"/>
      <path class="cls-1" d="M264.2,86.9c2.6,0,5.3,0,7.9,0,3.5,0,6,2.2,6.2,5.5.3,3.2-2,5.9-5.5,6.2-2.7.3-5.5.1-8.2.1-3,0-5.9,0-8.9,0-1,0-1.4-.2-1.4-1.3,0-3.1,0-6.2,0-9.2,0-1.2.4-1.4,1.5-1.4,2.8,0,5.6,0,8.4,0h0Z"/>
      <path class="cls-1" d="M263.5,79.4c-2.6,0-5.1,0-7.7,0-1,0-1.4-.2-1.4-1.3,0-2.9,0-5.7,0-8.6,0-1,.3-1.3,1.2-1.3,5.2,0,10.4,0,15.6,0,3.5,0,5.6,2.2,5.5,5.6,0,3.2-2.2,5.4-5.7,5.5-1.3,0-2.5,0-3.8,0-1.3,0-2.5,0-3.8,0Z"/>
      <path class="cls-1" d="M313.4,86.9c2.6,0,5.2,0,7.9,0,3.7,0,6.1,2.3,6.2,5.7,0,3.5-2.2,6-5.9,6.2-4.3.2-8.5,0-12.8,0-1.6,0-3.7.7-4.8-.3-.9-.9-.2-3-.3-4.6,0-1.9,0-3.8,0-5.6,0-1,.2-1.4,1.3-1.4,2.8,0,5.6,0,8.4,0Z"/>
      <path class="cls-1" d="M312.5,79.4c-2.5,0-5,0-7.5,0-.9,0-1.3-.2-1.3-1.2,0-2.9,0-5.7,0-8.6,0-1,.2-1.4,1.3-1.4,5.1,0,10.2,0,15.2,0,3.5,0,5.8,2.2,5.8,5.4,0,3.2-2.4,5.5-5.8,5.7-1.3,0-2.6,0-3.9,0-1.3,0-2.5,0-3.8,0Z"/>
      <path class="cls-1" d="M159.7,84.2c-2.3,0-4.7,0-7,0-1,0-1.3-.3-1.3-1.3,0-4.5,0-9,0-13.5,0-.8.3-1.1,1.1-1.1,4.9,0,9.8-.1,14.7,0,4.3.2,7.2,3.6,7.2,8,0,4.3-3,7.5-7.3,7.7-2.4.1-4.9,0-7.4,0,0,0,0,0,0,0Z"/>
      <path class="cls-1" d="M229.4,83.6c0,8.7-6.8,15.7-15.5,15.8-9,0-16-6.7-16-15.7,0-9,6.8-15.8,16-15.8,8.7,0,15.5,6.8,15.5,15.7Z"/>
      <path class="cls-2" d="M39.7,83.9c0-3.6,3.1-6.5,6.6-6.4,3.5,0,6.4,3,6.3,6.6,0,3.4-3,6.2-6.4,6.2-3.7,0-6.5-2.8-6.5-6.3Z"/>
      <path class="cls-2" d="M73.2,80.2c2.7.3,5,1.7,6.5,4.3.6,1.1.6,2.1-.5,2.8-1,.6-2,.5-2.9-.6-1.9-2.4-4.1-2.8-6.2-1.4-.5.4-.9.8-1.2,1.4-.8,1.2-1.9,1.2-3,.5-1.1-.6-1.1-1.7-.5-2.7,1.8-2.8,4.2-4.4,7.9-4.4Z"/>
    </g>
  </g>
</svg>